<mxfile host="app.diagrams.net" agent="Mozilla/5.0 (Macintosh; Intel Mac OS X 10_15_7) AppleWebKit/605.1.15 (KHTML, like Gecko) Version/18.0 Safari/605.1.15" version="27.0.6">
  <diagram name="Page-1" id="3zd8hre8o2DxWZM6YiKN">
    <mxGraphModel dx="2681" dy="2228" grid="1" gridSize="10" guides="1" tooltips="1" connect="1" arrows="1" fold="1" page="1" pageScale="1" pageWidth="827" pageHeight="1169" math="0" shadow="0">
      <root>
        <mxCell id="0" />
        <mxCell id="1" parent="0" />
        <mxCell id="WZ9l0XOxRqKQTCoqPu96-89" value="" style="verticalLabelPosition=bottom;html=1;verticalAlign=top;align=center;shape=mxgraph.floorplan.chair;shadow=0;direction=south;rotation=-180;" vertex="1" parent="1">
          <mxGeometry x="800.0048974278318" y="-29.99510257216823" width="40" height="40" as="geometry" />
        </mxCell>
        <mxCell id="WZ9l0XOxRqKQTCoqPu96-88" value="" style="verticalLabelPosition=bottom;html=1;verticalAlign=top;align=center;shape=mxgraph.floorplan.chair;shadow=0;direction=south;rotation=-180;" vertex="1" parent="1">
          <mxGeometry x="800.0048974278318" y="-79.99510257216822" width="40" height="40" as="geometry" />
        </mxCell>
        <mxCell id="WZ9l0XOxRqKQTCoqPu96-14" value="" style="verticalLabelPosition=bottom;html=1;verticalAlign=top;align=center;shape=mxgraph.floorplan.wall;fillColor=strokeColor;" vertex="1" parent="1">
          <mxGeometry x="240" y="680" width="400" height="10" as="geometry" />
        </mxCell>
        <mxCell id="WZ9l0XOxRqKQTCoqPu96-9" value="" style="shape=hexagon;perimeter=hexagonPerimeter2;whiteSpace=wrap;html=1;fixedSize=1;fillColor=none;size=80;" vertex="1" parent="1">
          <mxGeometry x="240" y="520" width="400" height="320" as="geometry" />
        </mxCell>
        <mxCell id="WZ9l0XOxRqKQTCoqPu96-11" value="" style="verticalLabelPosition=bottom;html=1;verticalAlign=top;align=center;shape=mxgraph.floorplan.doorDoublePocket;dx=0.25;" vertex="1" parent="1">
          <mxGeometry x="320" y="520" width="240" height="10" as="geometry" />
        </mxCell>
        <mxCell id="WZ9l0XOxRqKQTCoqPu96-12" value="" style="verticalLabelPosition=bottom;html=1;verticalAlign=top;align=center;shape=mxgraph.floorplan.elevator;" vertex="1" parent="1">
          <mxGeometry x="310" y="680" width="120" height="120" as="geometry" />
        </mxCell>
        <mxCell id="WZ9l0XOxRqKQTCoqPu96-13" value="" style="verticalLabelPosition=bottom;html=1;verticalAlign=top;align=center;shape=mxgraph.floorplan.elevator;" vertex="1" parent="1">
          <mxGeometry x="450" y="680" width="120" height="120" as="geometry" />
        </mxCell>
        <mxCell id="WZ9l0XOxRqKQTCoqPu96-15" value="" style="verticalLabelPosition=bottom;html=1;verticalAlign=top;align=center;shape=mxgraph.floorplan.doorDoublePocket;dx=0.25;rotation=117;" vertex="1" parent="1">
          <mxGeometry x="191" y="598" width="180" height="10" as="geometry" />
        </mxCell>
        <mxCell id="WZ9l0XOxRqKQTCoqPu96-18" value="" style="verticalLabelPosition=bottom;html=1;verticalAlign=top;align=center;shape=mxgraph.floorplan.doorDoublePocket;dx=0.25;rotation=63;" vertex="1" parent="1">
          <mxGeometry x="507" y="597" width="180" height="10" as="geometry" />
        </mxCell>
        <mxCell id="WZ9l0XOxRqKQTCoqPu96-23" value="" style="shape=hexagon;perimeter=hexagonPerimeter2;whiteSpace=wrap;html=1;fixedSize=1;fillColor=none;size=80;strokeWidth=1;" vertex="1" parent="1">
          <mxGeometry x="244.31" y="-117.53946032434914" width="400" height="320" as="geometry" />
        </mxCell>
        <mxCell id="WZ9l0XOxRqKQTCoqPu96-26" value="" style="verticalLabelPosition=bottom;html=1;verticalAlign=top;align=center;shape=mxgraph.floorplan.doorDoublePocket;dx=0.25;" vertex="1" parent="1">
          <mxGeometry x="324" y="-117.53946032434914" width="240" height="10" as="geometry" />
        </mxCell>
        <mxCell id="WZ9l0XOxRqKQTCoqPu96-27" value="" style="verticalLabelPosition=bottom;html=1;verticalAlign=top;align=center;shape=mxgraph.floorplan.doorDoublePocket;dx=0.25;" vertex="1" parent="1">
          <mxGeometry x="321.31" y="192.46053967565086" width="240" height="10" as="geometry" />
        </mxCell>
        <mxCell id="WZ9l0XOxRqKQTCoqPu96-28" value="" style="verticalLabelPosition=bottom;html=1;verticalAlign=top;align=center;shape=mxgraph.floorplan.doorDoublePocket;dx=0.25;rotation=117;" vertex="1" parent="1">
          <mxGeometry x="509.31" y="115.46053967565086" width="180" height="10" as="geometry" />
        </mxCell>
        <mxCell id="WZ9l0XOxRqKQTCoqPu96-34" value="" style="verticalLabelPosition=bottom;html=1;verticalAlign=top;align=center;shape=mxgraph.floorplan.doorDoublePocket;dx=0.25;rotation=63;" vertex="1" parent="1">
          <mxGeometry x="197" y="116" width="180" height="10" as="geometry" />
        </mxCell>
        <mxCell id="WZ9l0XOxRqKQTCoqPu96-36" value="" style="group" vertex="1" connectable="0" parent="1">
          <mxGeometry x="235.69" y="197.53946032434914" width="408.62417759750105" height="324.92107935130167" as="geometry" />
        </mxCell>
        <mxCell id="WZ9l0XOxRqKQTCoqPu96-17" value="" style="verticalLabelPosition=bottom;html=1;verticalAlign=top;align=center;shape=mxgraph.floorplan.doorDoublePocket;dx=0.25;rotation=63;" vertex="1" parent="WZ9l0XOxRqKQTCoqPu96-36">
          <mxGeometry x="-44.68582240249884" y="237.46053967565086" width="180" height="10" as="geometry" />
        </mxCell>
        <mxCell id="WZ9l0XOxRqKQTCoqPu96-21" value="" style="group" vertex="1" connectable="0" parent="WZ9l0XOxRqKQTCoqPu96-36">
          <mxGeometry width="408.62417759750105" height="322.92107935130167" as="geometry" />
        </mxCell>
        <mxCell id="WZ9l0XOxRqKQTCoqPu96-16" value="" style="verticalLabelPosition=bottom;html=1;verticalAlign=top;align=center;shape=mxgraph.floorplan.doorDoublePocket;dx=0.25;rotation=117;" vertex="1" parent="WZ9l0XOxRqKQTCoqPu96-21">
          <mxGeometry x="272.31" y="235.46053967565086" width="180" height="10" as="geometry" />
        </mxCell>
        <mxCell id="WZ9l0XOxRqKQTCoqPu96-19" value="" style="verticalLabelPosition=bottom;html=1;verticalAlign=top;align=center;shape=mxgraph.floorplan.doorDoublePocket;dx=0.25;rotation=63;" vertex="1" parent="WZ9l0XOxRqKQTCoqPu96-21">
          <mxGeometry x="273.31" y="77.46053967565086" width="180" height="10" as="geometry" />
        </mxCell>
        <mxCell id="WZ9l0XOxRqKQTCoqPu96-35" value="" style="group" vertex="1" connectable="0" parent="WZ9l0XOxRqKQTCoqPu96-21">
          <mxGeometry y="2.000000000000014" width="404.31" height="320.46053967565086" as="geometry" />
        </mxCell>
        <mxCell id="WZ9l0XOxRqKQTCoqPu96-1" value="" style="shape=hexagon;perimeter=hexagonPerimeter2;whiteSpace=wrap;html=1;fixedSize=1;fillColor=none;size=80;container=1;" vertex="1" parent="WZ9l0XOxRqKQTCoqPu96-35">
          <mxGeometry x="4.310000000000002" y="0.46053967565084974" width="400" height="320" as="geometry" />
        </mxCell>
        <mxCell id="WZ9l0XOxRqKQTCoqPu96-7" value="" style="verticalLabelPosition=bottom;html=1;verticalAlign=top;align=center;shape=mxgraph.floorplan.doorDoublePocket;dx=0.25;" vertex="1" parent="WZ9l0XOxRqKQTCoqPu96-35">
          <mxGeometry x="84.31" y="0.46053967565084974" width="240" height="10" as="geometry" />
        </mxCell>
        <mxCell id="WZ9l0XOxRqKQTCoqPu96-8" value="" style="verticalLabelPosition=bottom;html=1;verticalAlign=top;align=center;shape=mxgraph.floorplan.doorDoublePocket;dx=0.25;" vertex="1" parent="WZ9l0XOxRqKQTCoqPu96-35">
          <mxGeometry x="84.31" y="310.46053967565086" width="240" height="10" as="geometry" />
        </mxCell>
        <mxCell id="WZ9l0XOxRqKQTCoqPu96-20" value="" style="verticalLabelPosition=bottom;html=1;verticalAlign=top;align=center;shape=mxgraph.floorplan.doorDoublePocket;dx=0.25;rotation=117;" vertex="1" parent="WZ9l0XOxRqKQTCoqPu96-35">
          <mxGeometry x="-44.68582240249896" y="77.46053967565085" width="180" height="10" as="geometry" />
        </mxCell>
        <mxCell id="WZ9l0XOxRqKQTCoqPu96-33" value="" style="shape=hexagon;perimeter=hexagonPerimeter2;whiteSpace=wrap;html=1;fixedSize=1;fillColor=none;size=54.309999999999945;" vertex="1" parent="WZ9l0XOxRqKQTCoqPu96-35">
          <mxGeometry x="99.31" y="89.45999999999997" width="210" height="140" as="geometry" />
        </mxCell>
        <mxCell id="WZ9l0XOxRqKQTCoqPu96-4" value="" style="shape=hexagon;perimeter=hexagonPerimeter2;whiteSpace=wrap;html=1;fixedSize=1;fillColor=none;size=30;" vertex="1" parent="WZ9l0XOxRqKQTCoqPu96-35">
          <mxGeometry x="145.05" y="120.46053967565085" width="118.53" height="78" as="geometry" />
        </mxCell>
        <mxCell id="WZ9l0XOxRqKQTCoqPu96-3" value="" style="verticalLabelPosition=bottom;html=1;verticalAlign=top;align=center;shape=mxgraph.floorplan.plant;" vertex="1" parent="WZ9l0XOxRqKQTCoqPu96-35">
          <mxGeometry x="154.31" y="98.96053967565085" width="100" height="121" as="geometry" />
        </mxCell>
        <mxCell id="WZ9l0XOxRqKQTCoqPu96-37" value="" style="verticalLabelPosition=bottom;html=1;verticalAlign=top;align=center;shape=mxgraph.floorplan.wallCorner;fillColor=strokeColor;rotation=-180;" vertex="1" parent="1">
          <mxGeometry x="257" y="-117.54" width="120" height="180" as="geometry" />
        </mxCell>
        <mxCell id="WZ9l0XOxRqKQTCoqPu96-38" value="" style="verticalLabelPosition=bottom;html=1;verticalAlign=top;align=center;shape=mxgraph.floorplan.wallCorner;fillColor=strokeColor;rotation=-180;flipH=1;strokeWidth=1;" vertex="1" parent="1">
          <mxGeometry x="509.31" y="-117.53999999999999" width="120" height="180" as="geometry" />
        </mxCell>
        <mxCell id="WZ9l0XOxRqKQTCoqPu96-39" value="" style="shape=hexagon;perimeter=hexagonPerimeter2;whiteSpace=wrap;html=1;fixedSize=1;fillColor=none;size=80;strokeWidth=1;" vertex="1" parent="1">
          <mxGeometry x="244.31" y="-437.54" width="400" height="320" as="geometry" />
        </mxCell>
        <mxCell id="WZ9l0XOxRqKQTCoqPu96-40" value="" style="verticalLabelPosition=bottom;html=1;verticalAlign=top;align=center;shape=mxgraph.floorplan.doorDoublePocket;dx=0;" vertex="1" parent="1">
          <mxGeometry x="324.31" y="-437.54" width="240" height="10" as="geometry" />
        </mxCell>
        <mxCell id="WZ9l0XOxRqKQTCoqPu96-41" value="" style="verticalLabelPosition=bottom;html=1;verticalAlign=top;align=center;shape=mxgraph.floorplan.doorDoublePocket;dx=0;" vertex="1" parent="1">
          <mxGeometry x="324" y="-127.54000000000002" width="240" height="10" as="geometry" />
        </mxCell>
        <mxCell id="WZ9l0XOxRqKQTCoqPu96-42" value="" style="verticalLabelPosition=bottom;html=1;verticalAlign=top;align=center;shape=mxgraph.floorplan.wall;fillColor=strokeColor;direction=south;" vertex="1" parent="1">
          <mxGeometry x="560" y="-430" width="10" height="302.46" as="geometry" />
        </mxCell>
        <mxCell id="WZ9l0XOxRqKQTCoqPu96-44" value="" style="verticalLabelPosition=bottom;html=1;verticalAlign=top;align=center;shape=mxgraph.floorplan.wall;fillColor=strokeColor;direction=south;" vertex="1" parent="1">
          <mxGeometry x="321.31" y="-428.77" width="10" height="302.46" as="geometry" />
        </mxCell>
        <mxCell id="WZ9l0XOxRqKQTCoqPu96-47" value="" style="verticalLabelPosition=bottom;html=1;verticalAlign=top;align=center;shape=mxgraph.floorplan.doorDoublePocket;dx=0.25;rotation=63;" vertex="1" parent="1">
          <mxGeometry x="515.3141775975012" y="277.46053967565086" width="180" height="10" as="geometry" />
        </mxCell>
        <mxCell id="WZ9l0XOxRqKQTCoqPu96-52" value="" style="shape=hexagon;perimeter=hexagonPerimeter2;whiteSpace=wrap;html=1;fixedSize=1;fillColor=none;size=80;container=0;" vertex="1" parent="1">
          <mxGeometry x="564.31" y="40.00053967565086" width="400" height="320" as="geometry" />
        </mxCell>
        <mxCell id="WZ9l0XOxRqKQTCoqPu96-53" value="" style="verticalLabelPosition=bottom;html=1;verticalAlign=top;align=center;shape=mxgraph.floorplan.doorDoublePocket;dx=0.25;container=0;" vertex="1" parent="1">
          <mxGeometry x="644.31" y="40.00053967565086" width="240" height="10" as="geometry" />
        </mxCell>
        <mxCell id="WZ9l0XOxRqKQTCoqPu96-54" value="" style="verticalLabelPosition=bottom;html=1;verticalAlign=top;align=center;shape=mxgraph.floorplan.doorDoublePocket;dx=0.25;container=0;" vertex="1" parent="1">
          <mxGeometry x="644.31" y="350.0005396756509" width="240" height="10" as="geometry" />
        </mxCell>
        <mxCell id="WZ9l0XOxRqKQTCoqPu96-55" value="" style="verticalLabelPosition=bottom;html=1;verticalAlign=top;align=center;shape=mxgraph.floorplan.doorDoublePocket;dx=0.25;rotation=117;container=0;" vertex="1" parent="1">
          <mxGeometry x="515.314177597501" y="117.00053967565086" width="180" height="10" as="geometry" />
        </mxCell>
        <mxCell id="WZ9l0XOxRqKQTCoqPu96-59" value="" style="shape=hexagon;perimeter=hexagonPerimeter2;whiteSpace=wrap;html=1;fixedSize=1;fillColor=none;size=80;container=0;" vertex="1" parent="1">
          <mxGeometry x="564" y="-280" width="400" height="320" as="geometry" />
        </mxCell>
        <mxCell id="WZ9l0XOxRqKQTCoqPu96-65" value="" style="group;rotation=-15;" vertex="1" connectable="0" parent="1">
          <mxGeometry x="780" y="220" width="120" height="120" as="geometry" />
        </mxCell>
        <mxCell id="WZ9l0XOxRqKQTCoqPu96-60" value="" style="verticalLabelPosition=bottom;html=1;verticalAlign=top;align=center;shape=mxgraph.floorplan.chair;shadow=0;rotation=-15;" vertex="1" parent="WZ9l0XOxRqKQTCoqPu96-65">
          <mxGeometry x="30" y="1" width="40" height="42" as="geometry" />
        </mxCell>
        <mxCell id="WZ9l0XOxRqKQTCoqPu96-61" value="" style="verticalLabelPosition=bottom;html=1;verticalAlign=top;align=center;shape=mxgraph.floorplan.chair;shadow=0;direction=west;rotation=-15;" vertex="1" parent="WZ9l0XOxRqKQTCoqPu96-65">
          <mxGeometry x="50" y="79" width="40" height="40" as="geometry" />
        </mxCell>
        <mxCell id="WZ9l0XOxRqKQTCoqPu96-62" value="" style="verticalLabelPosition=bottom;html=1;verticalAlign=top;align=center;shape=mxgraph.floorplan.chair;shadow=0;direction=north;rotation=-15;" vertex="1" parent="WZ9l0XOxRqKQTCoqPu96-65">
          <mxGeometry x="1" y="50" width="40" height="40" as="geometry" />
        </mxCell>
        <mxCell id="WZ9l0XOxRqKQTCoqPu96-63" value="" style="verticalLabelPosition=bottom;html=1;verticalAlign=top;align=center;shape=mxgraph.floorplan.chair;shadow=0;direction=south;rotation=-15;" vertex="1" parent="WZ9l0XOxRqKQTCoqPu96-65">
          <mxGeometry x="79" y="30" width="40" height="40" as="geometry" />
        </mxCell>
        <mxCell id="WZ9l0XOxRqKQTCoqPu96-64" value="" style="shape=ellipse;shadow=0;html=1;rotation=-15;" vertex="1" parent="WZ9l0XOxRqKQTCoqPu96-65">
          <mxGeometry x="21" y="22" width="80" height="80" as="geometry" />
        </mxCell>
        <mxCell id="WZ9l0XOxRqKQTCoqPu96-66" value="" style="group;rotation=-5;" vertex="1" connectable="0" parent="1">
          <mxGeometry x="600.0046922834954" y="140.00469228349536" width="120" height="120" as="geometry" />
        </mxCell>
        <mxCell id="WZ9l0XOxRqKQTCoqPu96-67" value="" style="verticalLabelPosition=bottom;html=1;verticalAlign=top;align=center;shape=mxgraph.floorplan.chair;shadow=0;rotation=-5;" vertex="1" parent="WZ9l0XOxRqKQTCoqPu96-66">
          <mxGeometry x="37" width="40" height="42" as="geometry" />
        </mxCell>
        <mxCell id="WZ9l0XOxRqKQTCoqPu96-68" value="" style="verticalLabelPosition=bottom;html=1;verticalAlign=top;align=center;shape=mxgraph.floorplan.chair;shadow=0;direction=west;rotation=-5;" vertex="1" parent="WZ9l0XOxRqKQTCoqPu96-66">
          <mxGeometry x="43" y="80" width="40" height="40" as="geometry" />
        </mxCell>
        <mxCell id="WZ9l0XOxRqKQTCoqPu96-69" value="" style="verticalLabelPosition=bottom;html=1;verticalAlign=top;align=center;shape=mxgraph.floorplan.chair;shadow=0;direction=north;rotation=-5;" vertex="1" parent="WZ9l0XOxRqKQTCoqPu96-66">
          <mxGeometry y="43" width="40" height="40" as="geometry" />
        </mxCell>
        <mxCell id="WZ9l0XOxRqKQTCoqPu96-70" value="" style="verticalLabelPosition=bottom;html=1;verticalAlign=top;align=center;shape=mxgraph.floorplan.chair;shadow=0;direction=south;rotation=-5;" vertex="1" parent="WZ9l0XOxRqKQTCoqPu96-66">
          <mxGeometry x="80" y="37" width="40" height="40" as="geometry" />
        </mxCell>
        <mxCell id="WZ9l0XOxRqKQTCoqPu96-71" value="" style="shape=ellipse;shadow=0;html=1;rotation=-5;" vertex="1" parent="WZ9l0XOxRqKQTCoqPu96-66">
          <mxGeometry x="21" y="22" width="80" height="80" as="geometry" />
        </mxCell>
        <mxCell id="WZ9l0XOxRqKQTCoqPu96-72" value="" style="group;rotation=20;" vertex="1" connectable="0" parent="1">
          <mxGeometry x="790.0046922834954" y="60.00469228349536" width="120" height="120" as="geometry" />
        </mxCell>
        <mxCell id="WZ9l0XOxRqKQTCoqPu96-73" value="" style="verticalLabelPosition=bottom;html=1;verticalAlign=top;align=center;shape=mxgraph.floorplan.chair;shadow=0;rotation=20;" vertex="1" parent="WZ9l0XOxRqKQTCoqPu96-72">
          <mxGeometry x="54" y="2" width="40" height="42" as="geometry" />
        </mxCell>
        <mxCell id="WZ9l0XOxRqKQTCoqPu96-74" value="" style="verticalLabelPosition=bottom;html=1;verticalAlign=top;align=center;shape=mxgraph.floorplan.chair;shadow=0;direction=west;rotation=20;" vertex="1" parent="WZ9l0XOxRqKQTCoqPu96-72">
          <mxGeometry x="26" y="78" width="40" height="40" as="geometry" />
        </mxCell>
        <mxCell id="WZ9l0XOxRqKQTCoqPu96-75" value="" style="verticalLabelPosition=bottom;html=1;verticalAlign=top;align=center;shape=mxgraph.floorplan.chair;shadow=0;direction=north;rotation=20;" vertex="1" parent="WZ9l0XOxRqKQTCoqPu96-72">
          <mxGeometry x="2" y="26" width="40" height="40" as="geometry" />
        </mxCell>
        <mxCell id="WZ9l0XOxRqKQTCoqPu96-76" value="" style="verticalLabelPosition=bottom;html=1;verticalAlign=top;align=center;shape=mxgraph.floorplan.chair;shadow=0;direction=south;rotation=20;" vertex="1" parent="WZ9l0XOxRqKQTCoqPu96-72">
          <mxGeometry x="78" y="54" width="40" height="40" as="geometry" />
        </mxCell>
        <mxCell id="WZ9l0XOxRqKQTCoqPu96-77" value="" style="shape=ellipse;shadow=0;html=1;rotation=20;" vertex="1" parent="WZ9l0XOxRqKQTCoqPu96-72">
          <mxGeometry x="20" y="22" width="80" height="80" as="geometry" />
        </mxCell>
        <mxCell id="WZ9l0XOxRqKQTCoqPu96-78" value="" style="group;rotation=15;" vertex="1" connectable="0" parent="1">
          <mxGeometry x="610.0046922834954" y="-109.99530771650464" width="120" height="120" as="geometry" />
        </mxCell>
        <mxCell id="WZ9l0XOxRqKQTCoqPu96-79" value="" style="verticalLabelPosition=bottom;html=1;verticalAlign=top;align=center;shape=mxgraph.floorplan.chair;shadow=0;rotation=15;" vertex="1" parent="WZ9l0XOxRqKQTCoqPu96-78">
          <mxGeometry x="50" y="1" width="40" height="42" as="geometry" />
        </mxCell>
        <mxCell id="WZ9l0XOxRqKQTCoqPu96-80" value="" style="verticalLabelPosition=bottom;html=1;verticalAlign=top;align=center;shape=mxgraph.floorplan.chair;shadow=0;direction=west;rotation=15;" vertex="1" parent="WZ9l0XOxRqKQTCoqPu96-78">
          <mxGeometry x="30" y="79" width="40" height="40" as="geometry" />
        </mxCell>
        <mxCell id="WZ9l0XOxRqKQTCoqPu96-81" value="" style="verticalLabelPosition=bottom;html=1;verticalAlign=top;align=center;shape=mxgraph.floorplan.chair;shadow=0;direction=north;rotation=15;" vertex="1" parent="WZ9l0XOxRqKQTCoqPu96-78">
          <mxGeometry x="1" y="30" width="40" height="40" as="geometry" />
        </mxCell>
        <mxCell id="WZ9l0XOxRqKQTCoqPu96-82" value="" style="verticalLabelPosition=bottom;html=1;verticalAlign=top;align=center;shape=mxgraph.floorplan.chair;shadow=0;direction=south;rotation=15;" vertex="1" parent="WZ9l0XOxRqKQTCoqPu96-78">
          <mxGeometry x="79" y="50" width="40" height="40" as="geometry" />
        </mxCell>
        <mxCell id="WZ9l0XOxRqKQTCoqPu96-83" value="" style="shape=ellipse;shadow=0;html=1;rotation=15;" vertex="1" parent="WZ9l0XOxRqKQTCoqPu96-78">
          <mxGeometry x="20" y="22" width="80" height="80" as="geometry" />
        </mxCell>
        <mxCell id="WZ9l0XOxRqKQTCoqPu96-84" value="" style="verticalLabelPosition=bottom;html=1;verticalAlign=top;align=center;shape=mxgraph.floorplan.doorDoublePocket;dx=0.25;container=0;" vertex="1" parent="1">
          <mxGeometry x="644.31" y="30" width="240" height="10" as="geometry" />
        </mxCell>
        <mxCell id="WZ9l0XOxRqKQTCoqPu96-86" value="" style="verticalLabelPosition=bottom;html=1;verticalAlign=top;align=center;shape=mxgraph.floorplan.wallCorner;fillColor=strokeColor;rotation=-180;" vertex="1" parent="1">
          <mxGeometry x="564.31" y="-275.08" width="264.31" height="157.54" as="geometry" />
        </mxCell>
        <mxCell id="WZ9l0XOxRqKQTCoqPu96-87" value="" style="verticalLabelPosition=bottom;html=1;verticalAlign=top;align=center;shape=mxgraph.floorplan.desk_corner_2;rotation=-90;" vertex="1" parent="1">
          <mxGeometry x="795" y="-55" width="120" height="60" as="geometry" />
        </mxCell>
        <mxCell id="WZ9l0XOxRqKQTCoqPu96-90" value="" style="verticalLabelPosition=bottom;html=1;verticalAlign=top;align=center;shape=mxgraph.floorplan.doorLeft;aspect=fixed;rotation=-90;flipV=0;flipH=1;" vertex="1" parent="1">
          <mxGeometry x="824.62" y="-260" width="60.76" height="64.56" as="geometry" />
        </mxCell>
        <mxCell id="WZ9l0XOxRqKQTCoqPu96-92" value="" style="verticalLabelPosition=bottom;html=1;verticalAlign=top;align=center;shape=mxgraph.floorplan.doorDoublePocket;dx=0.25;rotation=63;" vertex="1" parent="1">
          <mxGeometry x="515.3141775975012" y="597.4605396756508" width="180" height="10" as="geometry" />
        </mxCell>
        <mxCell id="WZ9l0XOxRqKQTCoqPu96-94" value="" style="verticalLabelPosition=bottom;html=1;verticalAlign=top;align=center;shape=mxgraph.floorplan.doorDoublePocket;dx=0.25;rotation=117;" vertex="1" parent="1">
          <mxGeometry x="832.31" y="595.4605396756508" width="180" height="10" as="geometry" />
        </mxCell>
        <mxCell id="WZ9l0XOxRqKQTCoqPu96-97" value="" style="shape=hexagon;perimeter=hexagonPerimeter2;whiteSpace=wrap;html=1;fixedSize=1;fillColor=none;size=80;container=0;" vertex="1" parent="1">
          <mxGeometry x="560" y="360.0005396756509" width="400" height="320" as="geometry" />
        </mxCell>
        <mxCell id="WZ9l0XOxRqKQTCoqPu96-98" value="" style="verticalLabelPosition=bottom;html=1;verticalAlign=top;align=center;shape=mxgraph.floorplan.doorDoublePocket;dx=0.25;" vertex="1" parent="1">
          <mxGeometry x="644.31" y="362.46053967565086" width="240" height="10" as="geometry" />
        </mxCell>
        <mxCell id="WZ9l0XOxRqKQTCoqPu96-100" value="" style="verticalLabelPosition=bottom;html=1;verticalAlign=top;align=center;shape=mxgraph.floorplan.doorDoublePocket;dx=0.25;rotation=117;" vertex="1" parent="1">
          <mxGeometry x="515.314177597501" y="439.46053967565086" width="180" height="10" as="geometry" />
        </mxCell>
        <mxCell id="WZ9l0XOxRqKQTCoqPu96-104" value="" style="verticalLabelPosition=bottom;html=1;verticalAlign=top;align=center;shape=mxgraph.floorplan.wall;fillColor=strokeColor;direction=south;rotation=-30;" vertex="1" parent="1">
          <mxGeometry x="886.5" y="352.63" width="10" height="210" as="geometry" />
        </mxCell>
        <mxCell id="WZ9l0XOxRqKQTCoqPu96-118" value="" style="verticalLabelPosition=bottom;html=1;verticalAlign=top;align=center;shape=mxgraph.floorplan.wall;fillColor=strokeColor;" vertex="1" parent="1">
          <mxGeometry x="630" y="650" width="266.5" height="10" as="geometry" />
        </mxCell>
        <mxCell id="WZ9l0XOxRqKQTCoqPu96-119" value="" style="group" vertex="1" connectable="0" parent="1">
          <mxGeometry x="880" y="520" width="408.62417759750105" height="324.92107935130167" as="geometry" />
        </mxCell>
        <mxCell id="WZ9l0XOxRqKQTCoqPu96-120" value="" style="verticalLabelPosition=bottom;html=1;verticalAlign=top;align=center;shape=mxgraph.floorplan.doorDoublePocket;dx=0.25;rotation=63;" vertex="1" parent="WZ9l0XOxRqKQTCoqPu96-119">
          <mxGeometry x="-44.68582240249884" y="237.46053967565086" width="180" height="10" as="geometry" />
        </mxCell>
        <mxCell id="WZ9l0XOxRqKQTCoqPu96-121" value="" style="group" vertex="1" connectable="0" parent="WZ9l0XOxRqKQTCoqPu96-119">
          <mxGeometry width="408.62417759750105" height="322.92107935130167" as="geometry" />
        </mxCell>
        <mxCell id="WZ9l0XOxRqKQTCoqPu96-122" value="" style="verticalLabelPosition=bottom;html=1;verticalAlign=top;align=center;shape=mxgraph.floorplan.doorDoublePocket;dx=0.25;rotation=117;" vertex="1" parent="WZ9l0XOxRqKQTCoqPu96-121">
          <mxGeometry x="272.31" y="235.46053967565086" width="180" height="10" as="geometry" />
        </mxCell>
        <mxCell id="WZ9l0XOxRqKQTCoqPu96-123" value="" style="verticalLabelPosition=bottom;html=1;verticalAlign=top;align=center;shape=mxgraph.floorplan.doorDoublePocket;dx=0.25;rotation=63;" vertex="1" parent="WZ9l0XOxRqKQTCoqPu96-121">
          <mxGeometry x="273.31" y="77.46053967565086" width="180" height="10" as="geometry" />
        </mxCell>
        <mxCell id="WZ9l0XOxRqKQTCoqPu96-124" value="" style="group" vertex="1" connectable="0" parent="WZ9l0XOxRqKQTCoqPu96-121">
          <mxGeometry y="2.000000000000014" width="404.31" height="320.46053967565086" as="geometry" />
        </mxCell>
        <mxCell id="WZ9l0XOxRqKQTCoqPu96-125" value="" style="shape=hexagon;perimeter=hexagonPerimeter2;whiteSpace=wrap;html=1;fixedSize=1;fillColor=none;size=80;container=1;" vertex="1" parent="WZ9l0XOxRqKQTCoqPu96-124">
          <mxGeometry x="4.310000000000002" y="0.46053967565084974" width="400" height="320" as="geometry" />
        </mxCell>
        <mxCell id="WZ9l0XOxRqKQTCoqPu96-126" value="" style="verticalLabelPosition=bottom;html=1;verticalAlign=top;align=center;shape=mxgraph.floorplan.doorDoublePocket;dx=0.25;" vertex="1" parent="WZ9l0XOxRqKQTCoqPu96-124">
          <mxGeometry x="84.31" y="0.46053967565084974" width="240" height="10" as="geometry" />
        </mxCell>
        <mxCell id="WZ9l0XOxRqKQTCoqPu96-127" value="" style="verticalLabelPosition=bottom;html=1;verticalAlign=top;align=center;shape=mxgraph.floorplan.doorDoublePocket;dx=0.25;" vertex="1" parent="WZ9l0XOxRqKQTCoqPu96-124">
          <mxGeometry x="84.31" y="310.46053967565086" width="240" height="10" as="geometry" />
        </mxCell>
        <mxCell id="WZ9l0XOxRqKQTCoqPu96-128" value="" style="verticalLabelPosition=bottom;html=1;verticalAlign=top;align=center;shape=mxgraph.floorplan.doorDoublePocket;dx=0.25;rotation=117;" vertex="1" parent="WZ9l0XOxRqKQTCoqPu96-124">
          <mxGeometry x="-44.68582240249896" y="77.46053967565085" width="180" height="10" as="geometry" />
        </mxCell>
        <mxCell id="WZ9l0XOxRqKQTCoqPu96-129" value="" style="shape=hexagon;perimeter=hexagonPerimeter2;whiteSpace=wrap;html=1;fixedSize=1;fillColor=none;size=54.309999999999945;" vertex="1" parent="WZ9l0XOxRqKQTCoqPu96-124">
          <mxGeometry x="99.31" y="89.45999999999997" width="210" height="140" as="geometry" />
        </mxCell>
        <mxCell id="WZ9l0XOxRqKQTCoqPu96-130" value="" style="shape=hexagon;perimeter=hexagonPerimeter2;whiteSpace=wrap;html=1;fixedSize=1;fillColor=none;size=30;" vertex="1" parent="WZ9l0XOxRqKQTCoqPu96-124">
          <mxGeometry x="145.05" y="120.46053967565085" width="118.53" height="78" as="geometry" />
        </mxCell>
        <mxCell id="WZ9l0XOxRqKQTCoqPu96-131" value="" style="verticalLabelPosition=bottom;html=1;verticalAlign=top;align=center;shape=mxgraph.floorplan.plant;" vertex="1" parent="WZ9l0XOxRqKQTCoqPu96-124">
          <mxGeometry x="154.31" y="98.96053967565085" width="100" height="121" as="geometry" />
        </mxCell>
        <mxCell id="WZ9l0XOxRqKQTCoqPu96-149" value="" style="verticalLabelPosition=bottom;html=1;verticalAlign=top;align=center;shape=mxgraph.floorplan.range_2;rotation=-181;" vertex="1" parent="1">
          <mxGeometry x="740" y="-188.31" width="75" height="62" as="geometry" />
        </mxCell>
        <mxCell id="WZ9l0XOxRqKQTCoqPu96-154" value="" style="group" vertex="1" connectable="0" parent="1">
          <mxGeometry x="879.998602791856" y="202.46" width="402.6827944162883" height="322.4599999999999" as="geometry" />
        </mxCell>
        <mxCell id="WZ9l0XOxRqKQTCoqPu96-132" value="" style="shape=hexagon;perimeter=hexagonPerimeter2;whiteSpace=wrap;html=1;fixedSize=1;fillColor=none;size=80;strokeWidth=1;" vertex="1" parent="WZ9l0XOxRqKQTCoqPu96-154">
          <mxGeometry x="2.4413972081440534" y="2.4599999999999227" width="400" height="320" as="geometry" />
        </mxCell>
        <mxCell id="WZ9l0XOxRqKQTCoqPu96-136" value="" style="verticalLabelPosition=bottom;html=1;verticalAlign=top;align=center;shape=mxgraph.floorplan.wall;fillColor=strokeColor;direction=south;" vertex="1" parent="WZ9l0XOxRqKQTCoqPu96-154">
          <mxGeometry x="195.1313972081441" width="10" height="250" as="geometry" />
        </mxCell>
        <mxCell id="WZ9l0XOxRqKQTCoqPu96-139" value="" style="verticalLabelPosition=bottom;html=1;verticalAlign=top;align=center;shape=mxgraph.floorplan.wall;fillColor=strokeColor;" vertex="1" parent="WZ9l0XOxRqKQTCoqPu96-154">
          <mxGeometry x="27.941397208144053" y="109.99999999999997" width="349" height="10" as="geometry" />
        </mxCell>
        <mxCell id="WZ9l0XOxRqKQTCoqPu96-140" value="" style="verticalLabelPosition=bottom;html=1;verticalAlign=top;align=center;shape=mxgraph.floorplan.bed_single;rotation=60;" vertex="1" parent="WZ9l0XOxRqKQTCoqPu96-154">
          <mxGeometry x="317.5513972081442" y="112.46000000000001" width="50" height="110" as="geometry" />
        </mxCell>
        <mxCell id="WZ9l0XOxRqKQTCoqPu96-141" value="" style="verticalLabelPosition=bottom;html=1;verticalAlign=top;align=center;shape=mxgraph.floorplan.bed_single;rotation=-60;" vertex="1" parent="WZ9l0XOxRqKQTCoqPu96-154">
          <mxGeometry x="35.13139720814411" y="112.46000000000001" width="50" height="110" as="geometry" />
        </mxCell>
        <mxCell id="WZ9l0XOxRqKQTCoqPu96-142" value="" style="verticalLabelPosition=bottom;html=1;verticalAlign=top;align=center;shape=mxgraph.floorplan.doorLeft;aspect=fixed;flipH=1;flipV=1;" vertex="1" parent="WZ9l0XOxRqKQTCoqPu96-154">
          <mxGeometry x="130.1313972081441" y="58.079999999999956" width="58.28" height="61.92" as="geometry" />
        </mxCell>
        <mxCell id="WZ9l0XOxRqKQTCoqPu96-143" value="" style="verticalLabelPosition=bottom;html=1;verticalAlign=top;align=center;shape=mxgraph.floorplan.doorLeft;aspect=fixed;flipH=0;flipV=1;" vertex="1" parent="WZ9l0XOxRqKQTCoqPu96-154">
          <mxGeometry x="211.85139720814414" y="58.079999999999956" width="58.28" height="61.92" as="geometry" />
        </mxCell>
        <mxCell id="WZ9l0XOxRqKQTCoqPu96-144" value="" style="verticalLabelPosition=bottom;html=1;verticalAlign=top;align=center;shape=mxgraph.floorplan.shower2;rotation=-90;" vertex="1" parent="WZ9l0XOxRqKQTCoqPu96-154">
          <mxGeometry x="205.1313972081441" y="2.4599999999999795" width="50" height="50" as="geometry" />
        </mxCell>
        <mxCell id="WZ9l0XOxRqKQTCoqPu96-145" value="" style="verticalLabelPosition=bottom;html=1;verticalAlign=top;align=center;shape=mxgraph.floorplan.wallU;fillColor=strokeColor;" vertex="1" parent="WZ9l0XOxRqKQTCoqPu96-154">
          <mxGeometry x="130.1313972081441" y="249.99999999999997" width="140" height="72.46" as="geometry" />
        </mxCell>
        <mxCell id="WZ9l0XOxRqKQTCoqPu96-134" value="" style="verticalLabelPosition=bottom;html=1;verticalAlign=top;align=center;shape=mxgraph.floorplan.doorLeft;aspect=fixed;flipH=1;flipV=1;rotation=90;" vertex="1" parent="WZ9l0XOxRqKQTCoqPu96-154">
          <mxGeometry x="268.4113972081441" y="255.26999999999995" width="58.28" height="61.92" as="geometry" />
        </mxCell>
        <mxCell id="WZ9l0XOxRqKQTCoqPu96-138" value="" style="verticalLabelPosition=bottom;html=1;verticalAlign=top;align=center;shape=mxgraph.floorplan.doorLeft;aspect=fixed;flipH=0;flipV=1;rotation=-90;" vertex="1" parent="WZ9l0XOxRqKQTCoqPu96-154">
          <mxGeometry x="78.57139720814416" y="254.07999999999996" width="58.28" height="61.92" as="geometry" />
        </mxCell>
        <mxCell id="WZ9l0XOxRqKQTCoqPu96-146" value="" style="verticalLabelPosition=bottom;html=1;verticalAlign=top;align=center;shape=mxgraph.floorplan.shower2;rotation=0;" vertex="1" parent="WZ9l0XOxRqKQTCoqPu96-154">
          <mxGeometry x="145.1313972081441" y="2.460000000000008" width="50" height="50" as="geometry" />
        </mxCell>
        <mxCell id="WZ9l0XOxRqKQTCoqPu96-147" value="" style="verticalLabelPosition=bottom;html=1;verticalAlign=top;align=center;shape=mxgraph.floorplan.toilet;" vertex="1" parent="WZ9l0XOxRqKQTCoqPu96-154">
          <mxGeometry x="277.5513972081442" y="2.460000000000008" width="40" height="47" as="geometry" />
        </mxCell>
        <mxCell id="WZ9l0XOxRqKQTCoqPu96-148" value="" style="verticalLabelPosition=bottom;html=1;verticalAlign=top;align=center;shape=mxgraph.floorplan.toilet;" vertex="1" parent="WZ9l0XOxRqKQTCoqPu96-154">
          <mxGeometry x="84.44139720814405" y="2.4599999999999795" width="40" height="47" as="geometry" />
        </mxCell>
        <mxCell id="WZ9l0XOxRqKQTCoqPu96-150" value="" style="verticalLabelPosition=bottom;html=1;verticalAlign=top;align=center;shape=mxgraph.floorplan.sink_22;rotation=-180;" vertex="1" parent="WZ9l0XOxRqKQTCoqPu96-154">
          <mxGeometry x="300.1313972081441" y="74.99999999999997" width="40" height="35" as="geometry" />
        </mxCell>
        <mxCell id="WZ9l0XOxRqKQTCoqPu96-151" value="" style="verticalLabelPosition=bottom;html=1;verticalAlign=top;align=center;shape=mxgraph.floorplan.sink_22;rotation=-180;" vertex="1" parent="WZ9l0XOxRqKQTCoqPu96-154">
          <mxGeometry x="60.13139720814411" y="74.99999999999997" width="40" height="35" as="geometry" />
        </mxCell>
        <mxCell id="WZ9l0XOxRqKQTCoqPu96-152" value="" style="verticalLabelPosition=bottom;html=1;verticalAlign=top;align=center;shape=mxgraph.floorplan.dresser;rotation=90;" vertex="1" parent="WZ9l0XOxRqKQTCoqPu96-154">
          <mxGeometry x="141.85139720814414" y="199.45999999999995" width="70" height="40" as="geometry" />
        </mxCell>
        <mxCell id="WZ9l0XOxRqKQTCoqPu96-153" value="" style="verticalLabelPosition=bottom;html=1;verticalAlign=top;align=center;shape=mxgraph.floorplan.dresser;rotation=-90;" vertex="1" parent="WZ9l0XOxRqKQTCoqPu96-154">
          <mxGeometry x="188.41139720814408" y="199.45999999999995" width="70" height="40" as="geometry" />
        </mxCell>
        <mxCell id="WZ9l0XOxRqKQTCoqPu96-193" value="" style="shape=hexagon;perimeter=hexagonPerimeter2;whiteSpace=wrap;html=1;fixedSize=1;fillColor=none;size=80;" vertex="1" parent="1">
          <mxGeometry x="561.31" y="680" width="400" height="320" as="geometry" />
        </mxCell>
        <mxCell id="WZ9l0XOxRqKQTCoqPu96-195" value="" style="shape=hexagon;perimeter=hexagonPerimeter2;whiteSpace=wrap;html=1;fixedSize=1;fillColor=none;size=80;" vertex="1" parent="1">
          <mxGeometry x="1200" y="365" width="400" height="320" as="geometry" />
        </mxCell>
        <mxCell id="WZ9l0XOxRqKQTCoqPu96-196" value="" style="verticalLabelPosition=bottom;html=1;verticalAlign=top;align=center;shape=mxgraph.floorplan.bed_single;" vertex="1" parent="1">
          <mxGeometry x="660" y="770" width="60" height="130" as="geometry" />
        </mxCell>
        <mxCell id="WZ9l0XOxRqKQTCoqPu96-197" value="" style="verticalLabelPosition=bottom;html=1;verticalAlign=top;align=center;shape=mxgraph.floorplan.bed_single;" vertex="1" parent="1">
          <mxGeometry x="755" y="770" width="60" height="130" as="geometry" />
        </mxCell>
        <mxCell id="WZ9l0XOxRqKQTCoqPu96-200" value="" style="verticalLabelPosition=bottom;html=1;verticalAlign=top;align=center;shape=mxgraph.floorplan.bed_single;" vertex="1" parent="1">
          <mxGeometry x="1320" y="439.46" width="60" height="130" as="geometry" />
        </mxCell>
        <mxCell id="WZ9l0XOxRqKQTCoqPu96-201" value="" style="verticalLabelPosition=bottom;html=1;verticalAlign=top;align=center;shape=mxgraph.floorplan.bed_single;" vertex="1" parent="1">
          <mxGeometry x="1400" y="439.46" width="60" height="130" as="geometry" />
        </mxCell>
        <mxCell id="WZ9l0XOxRqKQTCoqPu96-203" value="" style="shape=hexagon;perimeter=hexagonPerimeter2;whiteSpace=wrap;html=1;fixedSize=1;fillColor=none;size=80;" vertex="1" parent="1">
          <mxGeometry x="880" y="840" width="400" height="320" as="geometry" />
        </mxCell>
        <mxCell id="WZ9l0XOxRqKQTCoqPu96-204" value="" style="verticalLabelPosition=bottom;html=1;verticalAlign=top;align=center;shape=mxgraph.floorplan.bed_single;" vertex="1" parent="1">
          <mxGeometry x="980" y="930" width="60" height="130" as="geometry" />
        </mxCell>
        <mxCell id="WZ9l0XOxRqKQTCoqPu96-205" value="" style="verticalLabelPosition=bottom;html=1;verticalAlign=top;align=center;shape=mxgraph.floorplan.bed_single;" vertex="1" parent="1">
          <mxGeometry x="1090" y="935" width="60" height="130" as="geometry" />
        </mxCell>
        <mxCell id="WZ9l0XOxRqKQTCoqPu96-206" value="" style="shape=hexagon;perimeter=hexagonPerimeter2;whiteSpace=wrap;html=1;fixedSize=1;fillColor=none;size=80;container=0;" vertex="1" parent="1">
          <mxGeometry x="-80" y="365" width="400" height="320" as="geometry" />
        </mxCell>
        <mxCell id="WZ9l0XOxRqKQTCoqPu96-207" value="" style="shape=hexagon;perimeter=hexagonPerimeter2;whiteSpace=wrap;html=1;fixedSize=1;fillColor=none;size=80;container=0;" vertex="1" parent="1">
          <mxGeometry x="-76" y="42.46000000000001" width="400" height="320" as="geometry" />
        </mxCell>
        <mxCell id="WZ9l0XOxRqKQTCoqPu96-208" value="" style="verticalLabelPosition=bottom;html=1;verticalAlign=top;align=center;shape=mxgraph.floorplan.wall;fillColor=strokeColor;" vertex="1" parent="1">
          <mxGeometry x="-9.5" y="650" width="266.5" height="10" as="geometry" />
        </mxCell>
        <mxCell id="WZ9l0XOxRqKQTCoqPu96-209" value="" style="verticalLabelPosition=bottom;html=1;verticalAlign=top;align=center;shape=mxgraph.floorplan.wall;fillColor=strokeColor;direction=south;rotation=30;" vertex="1" parent="1">
          <mxGeometry x="-9.499872981077829" y="359.46266739736603" width="10" height="210" as="geometry" />
        </mxCell>
        <mxCell id="WZ9l0XOxRqKQTCoqPu96-210" value="" style="group" vertex="1" connectable="0" parent="1">
          <mxGeometry x="-400" y="520" width="408.62417759750105" height="324.92107935130167" as="geometry" />
        </mxCell>
        <mxCell id="WZ9l0XOxRqKQTCoqPu96-211" value="" style="verticalLabelPosition=bottom;html=1;verticalAlign=top;align=center;shape=mxgraph.floorplan.doorDoublePocket;dx=0.25;rotation=63;" vertex="1" parent="WZ9l0XOxRqKQTCoqPu96-210">
          <mxGeometry x="-44.68582240249884" y="237.46053967565086" width="180" height="10" as="geometry" />
        </mxCell>
        <mxCell id="WZ9l0XOxRqKQTCoqPu96-212" value="" style="group" vertex="1" connectable="0" parent="WZ9l0XOxRqKQTCoqPu96-210">
          <mxGeometry width="408.62417759750105" height="322.92107935130167" as="geometry" />
        </mxCell>
        <mxCell id="WZ9l0XOxRqKQTCoqPu96-213" value="" style="verticalLabelPosition=bottom;html=1;verticalAlign=top;align=center;shape=mxgraph.floorplan.doorDoublePocket;dx=0.25;rotation=117;" vertex="1" parent="WZ9l0XOxRqKQTCoqPu96-212">
          <mxGeometry x="272.31" y="235.46053967565086" width="180" height="10" as="geometry" />
        </mxCell>
        <mxCell id="WZ9l0XOxRqKQTCoqPu96-214" value="" style="verticalLabelPosition=bottom;html=1;verticalAlign=top;align=center;shape=mxgraph.floorplan.doorDoublePocket;dx=0.25;rotation=63;" vertex="1" parent="WZ9l0XOxRqKQTCoqPu96-212">
          <mxGeometry x="273.31" y="77.46053967565086" width="180" height="10" as="geometry" />
        </mxCell>
        <mxCell id="WZ9l0XOxRqKQTCoqPu96-215" value="" style="group" vertex="1" connectable="0" parent="WZ9l0XOxRqKQTCoqPu96-212">
          <mxGeometry y="2.000000000000014" width="404.31" height="320.46053967565086" as="geometry" />
        </mxCell>
        <mxCell id="WZ9l0XOxRqKQTCoqPu96-216" value="" style="shape=hexagon;perimeter=hexagonPerimeter2;whiteSpace=wrap;html=1;fixedSize=1;fillColor=none;size=80;container=1;" vertex="1" parent="WZ9l0XOxRqKQTCoqPu96-215">
          <mxGeometry x="4.310000000000002" y="0.46053967565084974" width="400" height="320" as="geometry" />
        </mxCell>
        <mxCell id="WZ9l0XOxRqKQTCoqPu96-217" value="" style="verticalLabelPosition=bottom;html=1;verticalAlign=top;align=center;shape=mxgraph.floorplan.doorDoublePocket;dx=0.25;" vertex="1" parent="WZ9l0XOxRqKQTCoqPu96-215">
          <mxGeometry x="84.31" y="0.46053967565084974" width="240" height="10" as="geometry" />
        </mxCell>
        <mxCell id="WZ9l0XOxRqKQTCoqPu96-218" value="" style="verticalLabelPosition=bottom;html=1;verticalAlign=top;align=center;shape=mxgraph.floorplan.doorDoublePocket;dx=0.25;" vertex="1" parent="WZ9l0XOxRqKQTCoqPu96-215">
          <mxGeometry x="84.31" y="310.46053967565086" width="240" height="10" as="geometry" />
        </mxCell>
        <mxCell id="WZ9l0XOxRqKQTCoqPu96-219" value="" style="verticalLabelPosition=bottom;html=1;verticalAlign=top;align=center;shape=mxgraph.floorplan.doorDoublePocket;dx=0.25;rotation=117;" vertex="1" parent="WZ9l0XOxRqKQTCoqPu96-215">
          <mxGeometry x="-44.68582240249896" y="77.46053967565085" width="180" height="10" as="geometry" />
        </mxCell>
        <mxCell id="WZ9l0XOxRqKQTCoqPu96-220" value="" style="shape=hexagon;perimeter=hexagonPerimeter2;whiteSpace=wrap;html=1;fixedSize=1;fillColor=none;size=54.309999999999945;" vertex="1" parent="WZ9l0XOxRqKQTCoqPu96-215">
          <mxGeometry x="99.31" y="89.45999999999997" width="210" height="140" as="geometry" />
        </mxCell>
        <mxCell id="WZ9l0XOxRqKQTCoqPu96-221" value="" style="shape=hexagon;perimeter=hexagonPerimeter2;whiteSpace=wrap;html=1;fixedSize=1;fillColor=none;size=30;" vertex="1" parent="WZ9l0XOxRqKQTCoqPu96-215">
          <mxGeometry x="145.05" y="120.46053967565085" width="118.53" height="78" as="geometry" />
        </mxCell>
        <mxCell id="WZ9l0XOxRqKQTCoqPu96-222" value="" style="verticalLabelPosition=bottom;html=1;verticalAlign=top;align=center;shape=mxgraph.floorplan.plant;" vertex="1" parent="WZ9l0XOxRqKQTCoqPu96-215">
          <mxGeometry x="154.31" y="98.96053967565085" width="100" height="121" as="geometry" />
        </mxCell>
        <mxCell id="WZ9l0XOxRqKQTCoqPu96-223" value="" style="verticalLabelPosition=bottom;html=1;verticalAlign=top;align=center;shape=mxgraph.floorplan.windowBow;strokeWidth=3;flipV=1;flipH=1;" vertex="1" parent="1">
          <mxGeometry x="44" y="25" width="160" height="20" as="geometry" />
        </mxCell>
        <mxCell id="WZ9l0XOxRqKQTCoqPu96-224" value="" style="verticalLabelPosition=bottom;html=1;verticalAlign=top;align=center;shape=mxgraph.floorplan.windowBow;strokeWidth=3;flipV=1;flipH=1;rotation=296;" vertex="1" parent="1">
          <mxGeometry x="-120" y="112" width="160" height="20" as="geometry" />
        </mxCell>
        <mxCell id="WZ9l0XOxRqKQTCoqPu96-225" value="" style="verticalLabelPosition=bottom;html=1;verticalAlign=top;align=center;shape=mxgraph.floorplan.windowBow;strokeWidth=3;flipV=1;flipH=1;rotation=65;" vertex="1" parent="1">
          <mxGeometry x="852.31" y="112" width="160" height="20" as="geometry" />
        </mxCell>
        <mxCell id="WZ9l0XOxRqKQTCoqPu96-226" value="" style="verticalLabelPosition=bottom;html=1;verticalAlign=top;align=center;shape=mxgraph.floorplan.windowBow;strokeWidth=3;flipV=1;flipH=1;rotation=115;" vertex="1" parent="1">
          <mxGeometry x="852.31" y="-50" width="160" height="20" as="geometry" />
        </mxCell>
      </root>
    </mxGraphModel>
  </diagram>
</mxfile>
